<svg width="1022" height="544" viewBox="0 0 1022 544" fill="none" xmlns="http://www.w3.org/2000/svg">
  <!-- Left bracket < -->
  <polyline points="260,80 80,272 260,464" stroke="white" stroke-width="72" stroke-linecap="round" stroke-linejoin="round" fill="none"/>
  <!-- Right bracket > -->
  <polyline points="762,80 942,272 762,464" stroke="white" stroke-width="72" stroke-linecap="round" stroke-linejoin="round" fill="none"/>
  <!-- Cloud -->
  <path d="M708.652 196.846C706.775 196.669 704.933 196.669 703.056 196.562C703.056 196.492 703.056 196.421 703.056 196.35C707.058 151.265 666.754 110.854 613.027 106.108C570.562 102.319 532.56 121.975 516.446 152.61C497.002 130.687 467.712 115.352 433.819 112.342C369.679 106.64 313.685 146.979 308.762 202.442C308.019 210.729 308.585 218.84 310.108 226.702C249.617 225.64 199.538 257.054 195.677 300.298C191.569 346.446 241.648 388.592 307.523 394.471C343.825 397.694 377.258 389.194 400.74 373.221C425.39 393.585 461.231 408.142 502.137 411.754C553.315 416.323 599.746 402.652 627.725 378.427C645.858 388.769 667.321 395.781 690.802 397.871C761.423 404.14 822.694 364.26 827.652 308.762C832.575 253.265 779.344 203.185 708.687 196.881L708.652 196.846Z" fill="white"/>
</svg>
